<svg width="26" height="26" viewBox="0 0 26 26" fill="none" xmlns="http://www.w3.org/2000/svg">
<path d="M2.78571 0C1.24777 0 0 1.24777 0 2.78571V23.2143C0 24.7522 1.24777 26 2.78571 26H23.2143C24.7522 26 26 24.7522 26 23.2143V2.78571C26 1.24777 24.7522 0 23.2143 0H2.78571ZM8.52429 7.73233C9.66387 7.73233 10.6764 8.12633 11.422 8.71725C12.1114 9.26581 12.4343 9.81454 12.716 10.307L10.7473 11.2907C10.6064 10.9677 10.437 10.6298 10.0018 10.2645C9.52308 9.88424 9.04545 9.77211 8.63653 9.77211C7.03323 9.77211 6.18916 11.2632 6.18916 12.9227C6.18916 15.1033 7.30118 16.1855 8.63653 16.1855C9.93072 16.1855 10.4518 15.2853 10.7885 14.7093L12.7446 15.7079C12.3781 16.284 12.0265 16.8475 11.2386 17.395C10.8172 17.6904 9.84709 18.2677 8.46822 18.2677C5.83758 18.2677 3.71429 16.355 3.71429 12.9925C3.71429 10.0538 5.71158 7.73233 8.52429 7.73233ZM12.905 8.04149H15.5494L17.6028 15.1032L19.6413 8.04154H22.2857L18.8396 17.9722H16.3086L12.905 8.04149Z" fill="#9C9398"/>
</svg>
